<svg xmlns="http://www.w3.org/2000/svg" viewBox="0 0 92.89 89.1"><defs><style>.cls-1{fill:#6c63ff;}.cls-2{fill:#392fd5;}</style></defs><g id="Layer_2" data-name="Layer 2"><g id="Layer_1-2" data-name="Layer 1"><polygon class="cls-1" points="60.46 26.94 60.46 33.63 50.97 28.78 50.97 45.87 92.89 67.94 92.89 43.3 60.46 26.94"/><polygon class="cls-2" points="41.92 22.15 41.92 45.87 0 67.94 0 43.3 41.92 22.15"/><polygon class="cls-1" points="0 43.3 41.92 65.38 41.92 89.09 0 67.94 0 43.3"/><polygon class="cls-2" points="92.89 43.3 50.97 65.38 50.97 89.09 92.89 67.94 92.89 43.3"/><polygon class="cls-1" points="62.91 22.86 51.37 16.95 51.37 5.41 62.91 11.32 62.91 22.86"/><polygon class="cls-1" points="75.93 10.82 68.77 7.16 68.77 0 75.93 3.66 75.93 10.82"/><polygon class="cls-1" points="80.86 31.91 71 26.86 71 16.99 80.86 22.04 80.86 31.91"/></g></g></svg>