<svg xmlns="http://www.w3.org/2000/svg" viewBox="0 0 192.32 87.05"><defs><style>.cls-1{fill:#ccd6e5;}.cls-2{fill:#6c63ff;}.cls-3{fill:#e7eef9;}.cls-4{fill:#392fd5;}</style></defs><g id="Layer_2" data-name="Layer 2"><g id="OBJECTS"><path class="cls-1" d="M71.74,54.86C56.55,50.79,39.62,57.44,25,51.64a2.22,2.22,0,0,0-1.12-.23,1.91,1.91,0,0,0-.82.43L7.65,63.11c3.3-.39,14.12.08,17.08.21q8.65.41,17.27,1.4a252.56,252.56,0,0,1,34.28,6.37c6.32,1.63,12.49,4,18.79,5.58A34.45,34.45,0,0,0,71.74,54.86Z"/><path class="cls-1" d="M76.68,55.43c-8.5-3.53-17.87-4.34-27.08-4.53-6.26-.13-13.05-.17-18-4a20.91,20.91,0,0,0,6.7-2c.87,1.46,2.58,2.17,4.2,2.65,8,2.36,16.61,1.21,24.82,2.67A39.82,39.82,0,0,1,93.57,67.84a18.38,18.38,0,0,1,2.59,6.25,41.73,41.73,0,0,0-6.9-10.17A36.82,36.82,0,0,0,76.68,55.43Z"/><path class="cls-1" d="M70.44,47.63c-4.07-.87-8.52-1-12.66-1.42a28.68,28.68,0,0,1-6-1.15,11.11,11.11,0,0,1-5.06-3.25,9.86,9.86,0,0,0,4.92-.72A3.47,3.47,0,0,0,53,42.9a12.58,12.58,0,0,0,5.72,2.41c2,.37,4.15.44,6.23.64a33.34,33.34,0,0,1,15.52,5,41.48,41.48,0,0,1,5,4.25A35.06,35.06,0,0,0,70.44,47.63Z"/><path class="cls-2" d="M96.16,80.31s-36.26-14-91-14.13L0,69.91S45.82,65.56,96.16,80.31Z"/><path class="cls-3" d="M120.58,55c15.19-4.07,32.12,2.58,46.73-3.22a2.22,2.22,0,0,1,1.12-.23,1.91,1.91,0,0,1,.82.43L184.67,63.2c-3.3-.39-14.12.08-17.08.21q-8.66.41-17.27,1.4A252.85,252.85,0,0,0,116,71.18c-6.32,1.63-12.49,4-18.79,5.58A34.45,34.45,0,0,1,120.58,55Z"/><path class="cls-3" d="M115.64,55.52c8.5-3.53,17.87-4.34,27.08-4.53,6.26-.13,13.05-.17,18-4A20.91,20.91,0,0,1,154,45c-.87,1.46-2.57,2.17-4.2,2.65-8,2.36-16.61,1.21-24.82,2.67A39.82,39.82,0,0,0,98.75,67.93a18.38,18.38,0,0,0-2.59,6.25A41.73,41.73,0,0,1,103.06,64,36.91,36.91,0,0,1,115.64,55.52Z"/><path class="cls-3" d="M121.88,47.72c4.07-.88,8.52-1,12.66-1.42a28.77,28.77,0,0,0,6-1.15,11.13,11.13,0,0,0,5.05-3.25,10,10,0,0,1-4.92-.72A3.47,3.47,0,0,1,139.33,43a12.53,12.53,0,0,1-5.72,2.41c-2.05.37-4.15.44-6.23.64a33.3,33.3,0,0,0-15.51,5,40.82,40.82,0,0,0-5,4.25A35.11,35.11,0,0,1,121.88,47.72Z"/><path class="cls-4" d="M96.16,80.4s36.26-14,91-14.13L192.32,70S146.5,65.65,96.16,80.4Z"/><path class="cls-4" d="M25.71,72.17s39.38.89,70.45,10.44v4.44S79.47,78.39,25.71,72.17Z"/><path class="cls-2" d="M166.61,72.17s-39.38.89-70.45,10.44v4.44S112.85,78.39,166.61,72.17Z"/><polygon class="cls-2" points="103.75 14.59 103.75 18.22 98.61 15.59 98.61 24.84 121.32 36.8 121.32 23.45 103.75 14.59"/><polygon class="cls-4" points="93.71 12 93.71 24.84 71.01 36.8 71.01 23.45 93.71 12"/><polygon class="cls-2" points="71.01 23.45 93.71 35.41 93.71 48.25 71.01 36.8 71.01 23.45"/><polygon class="cls-4" points="121.32 23.45 98.61 35.41 98.61 48.25 121.32 36.8 121.32 23.45"/><polygon class="cls-2" points="105.08 12.38 98.83 9.18 98.83 2.93 105.08 6.13 105.08 12.38"/><polygon class="cls-2" points="112.13 5.86 108.25 3.88 108.25 0 112.13 1.98 112.13 5.86"/><polygon class="cls-2" points="114.8 17.28 109.46 14.55 109.46 9.2 114.8 11.94 114.8 17.28"/></g></g></svg>